<svg width="50" height="50" viewBox="0 0 50 50" fill="none" xmlns="http://www.w3.org/2000/svg">
<rect width="50" height="50" rx="10" fill="url(#paint0_linear_1007_415)"/>
<path d="M21.18 10.68C21.6867 10.6 22.2933 10.54 23 10.5C23.72 10.46 24.3467 10.44 24.88 10.44C25.3867 10.44 26 10.46 26.72 10.5C27.4533 10.54 28.0733 10.6133 28.58 10.72L37.18 37.58C36.74 37.8333 36.1667 38.0267 35.46 38.16C34.7667 38.2933 34.12 38.36 33.52 38.36C32.5067 38.36 31.7133 38.1267 31.14 37.66C30.5667 37.18 30.0867 36.2533 29.7 34.88L26.84 24.74C26.5333 23.62 26.1733 22.3 25.76 20.78C25.36 19.26 24.9867 17.84 24.64 16.52H24.4C24.2667 17.2533 24.0867 18.0733 23.86 18.98C23.6333 19.8867 23.3933 20.7933 23.14 21.7C22.9 22.5933 22.6733 23.4067 22.46 24.14L18.38 38.04C17.98 38.1333 17.5533 38.1933 17.1 38.22C16.6467 38.26 16.1667 38.28 15.66 38.28C15.18 38.28 14.6333 38.24 14.02 38.16C13.42 38.08 12.94 37.9733 12.58 37.84L12.34 37.5L21.18 10.68ZM21.66 32.28C21.4733 32.28 21.2533 32.28 21 32.28C20.76 32.2667 20.52 32.26 20.28 32.26C20.04 32.2467 19.82 32.24 19.62 32.24H16.26L18.2 27.26H21.16C21.3467 27.26 21.56 27.26 21.8 27.26C22.04 27.2467 22.28 27.24 22.52 27.24C22.76 27.2267 22.9733 27.22 23.16 27.22H26.08C26.28 27.22 26.4933 27.2267 26.72 27.24C26.96 27.24 27.2 27.2467 27.44 27.26C27.6933 27.26 27.9133 27.26 28.1 27.26H31.16L32.78 32.24H29.4C29.2133 32.24 28.9933 32.2467 28.74 32.26C28.5 32.26 28.2533 32.2667 28 32.28C27.76 32.28 27.5467 32.28 27.36 32.28H21.66Z" fill="white"/>
<defs>
<linearGradient id="paint0_linear_1007_415" x1="50" y1="50" x2="0" y2="0" gradientUnits="userSpaceOnUse">
<stop stop-color="#FF4FCB"/>
<stop offset="0.848958" stop-color="#694FFF"/>
</linearGradient>
</defs>
</svg>
